<?xml version="1.0" encoding="iso-8859-1"?>
<!-- Uploaded to: SVG Repo, www.svgrepo.com, Generator: SVG Repo Mixer Tools -->
<!DOCTYPE svg PUBLIC "-//W3C//DTD SVG 1.1//EN" "http://www.w3.org/Graphics/SVG/1.1/DTD/svg11.dtd">
<svg fill="#084c83" version="1.1" id="Capa_1" xmlns="http://www.w3.org/2000/svg" xmlns:xlink="http://www.w3.org/1999/xlink" 
	 width="800px" height="800px" viewBox="0 0 60.731 60.731"
	 xml:space="preserve">
<g>
	<g>
		<path d="M18.417,8.556c2.474-2.708,5.941-4.083,10.399-4.127V0h3.163v4.359c4.416,0.31,7.806,1.609,10.164,3.898
			c2.365,2.292,3.6,5.316,3.714,9.079h-5.824c-0.152-1.686-0.613-3.139-1.363-4.358c-1.398-2.24-3.63-3.416-6.688-3.528v16.206
			c5.146,1.441,8.641,2.794,10.481,4.06c2.993,2.086,4.491,5.17,4.491,9.249c0,5.901-1.913,10.094-5.757,12.578
			c-2.126,1.378-5.203,2.285-9.216,2.729v6.46h-3.163v-6.46c-6.456-0.42-10.837-2.701-13.146-6.855
			c-1.264-2.239-1.896-5.269-1.896-9.083h5.889c0.178,3.038,0.659,5.256,1.441,6.656c1.385,2.505,3.954,3.917,7.71,4.227V31.082
			c-4.816-0.913-8.372-2.431-10.665-4.562c-2.296-2.13-3.446-5.08-3.446-8.853C14.706,14.3,15.942,11.258,18.417,8.556z
			 M22.893,22.433c1.468,1.242,3.441,2.106,5.924,2.595V9.388c-2.931,0.112-5.015,1-6.257,2.663
			c-1.243,1.663-1.865,3.406-1.865,5.225C20.695,19.466,21.429,21.186,22.893,22.433z M39.833,45.225
			c0.75-1.328,1.129-2.874,1.129-4.626c0-2.774-1.021-4.882-3.063-6.323c-1.173-0.84-3.15-1.643-5.922-2.391V49.39
			C35.771,49.207,38.392,47.82,39.833,45.225z"/>
	</g>
</g>
</svg>